<?xml version="1.0" standalone="no"?>
<!DOCTYPE svg PUBLIC "-//W3C//DTD SVG 20010904//EN"
 "http://www.w3.org/TR/2001/REC-SVG-20010904/DTD/svg10.dtd">
<svg version="1.0" xmlns="http://www.w3.org/2000/svg"
 width="976.000000pt" height="976.000000pt" viewBox="0 0 976.000000 976.000000"
 preserveAspectRatio="xMidYMid meet">
<metadata>
Created by potrace 1.11, written by Peter Selinger 2001-2013
</metadata>
<g transform="translate(0.000000,976.000000) scale(0.100000,-0.100000)"
fill="#000000" stroke="none">
<path d="M4106 6883 c-1 -1 -27 -5 -58 -7 -30 -3 -77 -10 -104 -17 -27 -6 -53
-12 -59 -13 -39 -7 -185 -76 -185 -87 0 -4 -8 -10 -18 -13 -60 -19 -152 -156
-177 -261 -16 -72 -11 -244 10 -335 11 -47 28 -101 39 -125 44 -97 74 -154 79
-149 3 3 11 7 19 8 7 2 22 7 33 11 11 4 35 14 54 22 37 14 162 47 221 58 36 6
240 16 240 11 0 -1 -11 -24 -24 -52 -13 -27 -27 -67 -31 -89 -11 -53 -13 -200
-4 -250 4 -22 10 -53 13 -70 8 -47 32 -128 44 -150 6 -11 18 -38 28 -60 9 -22
20 -42 24 -45 4 -3 10 -15 14 -26 5 -16 0 -25 -16 -37 -13 -8 -43 -33 -68 -56
-25 -22 -53 -43 -62 -47 -10 -3 -18 -9 -18 -13 0 -5 -24 -26 -52 -48 -29 -22
-66 -52 -83 -66 -16 -14 -88 -74 -160 -133 -213 -174 -218 -178 -231 -191 -7
-7 -15 -13 -18 -13 -3 0 -14 -8 -24 -17 -11 -10 -45 -40 -78 -68 -54 -47 -74
-67 -132 -134 -115 -133 -169 -271 -167 -421 3 -118 18 -202 60 -325 31 -91
97 -201 125 -208 8 -2 34 7 57 20 22 13 51 26 62 28 12 3 31 7 44 10 30 8 183
6 295 -4 9 -1 11 -10 7 -33 -18 -92 -7 -275 22 -363 4 -11 8 -22 8 -25 31
-117 109 -264 145 -273 8 -2 34 7 57 20 22 13 51 26 62 28 12 3 31 7 44 10 49
12 311 0 413 -19 11 -2 39 -7 64 -11 25 -3 92 -15 150 -25 58 -11 123 -22 145
-24 22 -3 78 -12 125 -19 47 -8 92 -14 100 -14 8 -1 56 -4 105 -9 177 -16 556
-5 583 16 2 3 6 4 56 14 21 4 50 12 65 19 14 6 31 11 37 12 24 1 145 80 191
124 48 46 113 140 113 164 0 7 4 17 9 22 6 6 13 24 16 40 4 17 9 41 12 55 8
36 8 259 1 300 -4 19 -9 46 -12 60 -7 32 -49 124 -58 128 -5 2 -8 8 -8 13 0 6
-10 23 -22 39 l-21 29 -25 -19 c-14 -11 -29 -20 -33 -20 -5 0 -18 -8 -28 -17
-23 -19 -126 -60 -189 -74 -76 -17 -112 -20 -227 -23 l-115 -2 20 30 c25 40
53 97 57 116 1 8 9 42 17 74 15 59 15 267 1 326 -3 14 -8 36 -11 50 -7 31 -59
136 -85 169 l-20 25 33 25 c18 14 41 34 50 44 10 9 18 15 18 12 0 -4 28 17 64
50 6 6 110 89 231 185 121 96 222 177 225 180 3 3 70 57 150 121 153 123 200
164 200 175 0 4 7 12 15 18 42 32 110 186 131 296 12 61 10 253 -2 295 -6 22
-12 43 -12 48 -1 19 -37 103 -46 109 -6 4 -8 8 -3 8 12 0 -45 81 -88 126 -22
23 -47 40 -55 38 -8 -1 -40 -7 -70 -13 -153 -31 -390 -45 -376 -23 17 29 29
286 15 328 -4 11 -9 34 -12 50 -6 39 -38 117 -51 126 -6 4 -7 8 -3 8 11 0 -48
84 -91 129 -20 21 -44 37 -52 35 -118 -24 -201 -37 -247 -38 -18 0 -33 -3 -33
-6 0 -11 -384 2 -430 15 -8 2 -37 7 -65 10 -27 3 -75 10 -105 15 -59 11 -107
17 -185 26 -27 2 -61 8 -75 11 -14 3 -38 7 -55 8 -16 1 -50 5 -75 8 -110 16
-138 19 -185 23 -58 5 -275 10 -279 7z m1176 -1579 c18 -2 56 -7 83 -10 28 -3
61 -7 75 -10 46 -9 117 -20 205 -30 28 -4 51 -7 53 -9 6 -5 -72 -75 -178 -158
-22 -18 -123 -100 -136 -112 -7 -5 -31 -26 -55 -45 -24 -19 -51 -43 -61 -52
-10 -10 -22 -18 -27 -18 -5 0 -11 -3 -13 -7 -1 -5 -28 -28 -58 -53 -30 -25
-57 -47 -60 -50 -3 -3 -39 -32 -80 -65 -84 -67 -117 -95 -134 -110 -6 -6 -49
-41 -96 -79 -47 -37 -89 -73 -95 -80 -5 -6 -39 -33 -74 -60 -66 -51 -78 -54
-171 -42 -14 2 -47 7 -75 10 -27 4 -63 10 -80 13 -16 4 -37 7 -45 8 -56 6
-180 38 -180 46 0 4 12 15 27 25 15 9 37 26 48 37 11 10 58 49 105 85 47 36
87 69 90 72 3 3 59 48 125 100 66 52 122 97 125 100 3 3 73 59 155 125 83 65
156 125 163 132 7 7 16 13 20 13 4 0 26 18 50 40 23 21 42 37 42 34 0 -3 6 1
13 8 14 13 44 38 142 116 27 22 53 38 57 36 4 -3 22 -7 40 -10z"/>
</g>
</svg>
