<svg width="259.18994140625px" height="122.021240234375px" xmlns="http://www.w3.org/2000/svg" viewBox="120.405029296875 13.9893798828125 259.18994140625 122.021240234375" style="background:#596886" preserveAspectRatio="xMidYMid"><defs><filter id="editing-hover" x="-100%" y="-100%" width="300%" height="300%"><feFlood flood-color="#052b4a" result="flood"></feFlood><feComposite operator="in" in2="SourceAlpha" in="flood" result="shadow"></feComposite><feOffset dx="-4" dy="-4" in="SourceGraphic" result="offset-1"></feOffset><feOffset dx="4" dy="4" in="shadow" result="offset-2"></feOffset><feMerge><feMergeNode in="offset-2"></feMergeNode><feMergeNode in="offset-1"></feMergeNode></feMerge></filter></defs><g filter="url(#editing-hover)"><g transform="translate(162.4800005853176, 104.78218841552734)"><path d="M14.62 0.16L14.62 0.16L14.62 0.16Q11.20-0.45 9.41-0.70L9.41-0.70L9.41-0.70Q7.62-0.96 5.73-0.96L5.73-0.96L5.73-0.96Q3.84-0.96 2.88 0L2.88 0L2.88 0Q1.41-1.09 0.64-4.54L0.64-4.54L0.64-4.54Q0.38-5.50 0.38-7.10L0.38-7.10L0.38-7.10Q0.38-10.56 4.35-13.95L4.35-13.95L24.32-30.34L24.32-30.34Q16.06-31.68 12.74-31.68L12.74-31.68L12.74-31.68Q9.41-31.68 6.34-30.21L6.34-30.21L6.34-30.21Q4.61-33.02 4.61-36.29L4.61-36.29L4.61-36.29Q4.61-39.55 7.01-41.22L7.01-41.22L7.01-41.22Q9.41-42.88 13.44-42.88L13.44-42.88L13.44-42.88Q15.23-42.88 17.15-42.62L17.15-42.62L17.15-42.62Q19.07-42.37 20.99-42.11L20.99-42.11L24.77-41.54L24.77-41.54Q26.62-41.28 29.02-41.28L29.02-41.28L29.02-41.28Q31.42-41.28 34.11-41.92L34.11-41.92L34.11-41.92Q36.67-39.68 36.67-35.97L36.67-35.97L36.67-35.97Q36.67-31.49 33.60-29.06L33.60-29.06L11.84-11.65L11.84-11.65Q16.51-10.37 24.26-10.37L24.26-10.37L24.26-10.37Q28.10-10.37 30.53-12.29L30.53-12.29L30.53-12.29Q31.62-10.88 31.90-9.70L31.90-9.70L31.90-9.70Q32.19-8.51 32.19-6.82L32.19-6.82L32.19-6.82Q32.19-5.12 31.62-3.74L31.62-3.74L31.62-3.74Q31.04-2.37 29.82-1.34L29.82-1.34L29.82-1.34Q27.39 0.77 22.02 0.77L22.02 0.77L22.02 0.77Q18.05 0.77 14.62 0.16ZM53.38-3.52L53.38-3.52L53.38-3.52Q51.39 1.28 45.06 1.28L45.06 1.28L45.06 1.28Q41.79 1.28 39.74-0.96L39.74-0.96L39.74-0.96Q38.02-2.94 38.02-4.93L38.02-4.93L38.02-4.93Q38.02-10.11 40.38-20.22L40.38-20.22L42.75-32.64L55.74-33.92L51.84-13.70L51.84-13.70Q50.75-8.96 50.75-7.30L50.75-7.30L50.75-7.30Q50.75-3.65 53.38-3.52ZM43.90-41.54L43.90-41.54L43.90-41.54Q43.90-44.03 45.98-45.38L45.98-45.38L45.98-45.38Q48.06-46.72 51.07-46.72L51.07-46.72L51.07-46.72Q54.08-46.72 55.90-45.38L55.90-45.38L55.90-45.38Q57.73-44.03 57.73-41.54L57.73-41.54L57.73-41.54Q57.73-39.04 55.71-37.76L55.71-37.76L55.71-37.76Q53.70-36.48 50.69-36.48L50.69-36.48L50.69-36.48Q47.68-36.48 45.79-37.76L45.79-37.76L45.79-37.76Q43.90-39.04 43.90-41.54ZM88.64-4.38L88.64-4.38L88.64-4.38Q85.95-1.66 82.27-0.19L82.27-0.19L82.27-0.19Q78.59 1.28 74.94 1.28L74.94 1.28L74.94 1.28Q71.30 1.28 70.02 0.64L70.02 0.64L68.03 11.52L55.04 12.80L63.87-32.64L74.30-33.73L73.47-29.31L73.47-29.31Q76.16-33.86 81.73-33.86L81.73-33.86L81.73-33.86Q88-33.86 91.33-29.82L91.33-29.82L91.33-29.82Q94.27-26.18 94.27-20.61L94.27-20.61L94.27-20.61Q94.27-15.04 92.80-11.07L92.80-11.07L92.80-11.07Q91.33-7.10 88.64-4.38ZM74.18-22.34L70.78-3.58L70.78-3.58Q72.13-2.43 73.79-2.43L73.79-2.43L73.79-2.43Q75.46-2.43 76.42-3.07L76.42-3.07L76.42-3.07Q77.38-3.71 78.08-4.99L78.08-4.99L78.08-4.99Q80-8.45 81.54-18.94L81.54-18.94L81.54-18.94Q81.98-22.02 81.98-25.02L81.98-25.02L81.98-25.02Q81.98-28.03 81.31-28.99L81.31-28.99L81.31-28.99Q80.64-29.95 79.36-29.95L79.36-29.95L79.36-29.95Q75.46-29.95 74.18-22.34L74.18-22.34ZM127.94-4.38L127.94-4.38L127.94-4.38Q125.25-1.66 121.57-0.19L121.57-0.19L121.57-0.19Q117.89 1.28 114.24 1.28L114.24 1.28L114.24 1.28Q110.59 1.28 109.31 0.64L109.31 0.64L107.33 11.52L94.34 12.80L103.17-32.64L113.60-33.73L112.77-29.31L112.77-29.31Q115.46-33.86 121.02-33.86L121.02-33.86L121.02-33.86Q127.30-33.86 130.62-29.82L130.62-29.82L130.62-29.82Q133.57-26.18 133.57-20.61L133.57-20.61L133.57-20.61Q133.57-15.04 132.10-11.07L132.10-11.07L132.10-11.07Q130.62-7.10 127.94-4.38ZM113.47-22.34L110.08-3.58L110.08-3.58Q111.42-2.43 113.09-2.43L113.09-2.43L113.09-2.43Q114.75-2.43 115.71-3.07L115.71-3.07L115.71-3.07Q116.67-3.71 117.38-4.99L117.38-4.99L117.38-4.99Q119.30-8.45 120.83-18.94L120.83-18.94L120.83-18.94Q121.28-22.02 121.28-25.02L121.28-25.02L121.28-25.02Q121.28-28.03 120.61-28.99L120.61-28.99L120.61-28.99Q119.94-29.95 118.66-29.95L118.66-29.95L118.66-29.95Q114.75-29.95 113.47-22.34L113.47-22.34ZM157.76-7.23L157.76-7.23L157.76-7.23Q154.43-3.78 148.35-3.78L148.35-3.78L148.35-3.78Q140.74-3.78 139.14-9.34L139.14-9.34L139.14-9.34Q138.62-11.01 138.62-12.86L138.62-12.86L138.62-12.86Q138.62-14.72 139.01-16.64L139.01-16.64L142.02-32.64L155.01-33.92L151.49-15.30L151.49-15.30Q151.36-14.46 151.17-13.57L151.17-13.57L151.17-13.57Q150.98-12.67 150.98-11.74L150.98-11.74L150.98-11.74Q150.98-10.82 151.30-10.21L151.30-10.21L151.30-10.21Q151.62-9.60 152.06-9.22L152.06-9.22L152.06-9.22Q152.83-8.70 154.21-8.70L154.21-8.70L154.21-8.70Q155.58-8.70 156.77-10.37L156.77-10.37L156.77-10.37Q157.95-12.03 158.53-14.91L158.53-14.91L162.05-32.64L174.66-33.92L169.86-8.77L169.86-8.77Q167.49 3.52 162.62 8.38L162.62 8.38L162.62 8.38Q160.13 10.88 156.90 11.87L156.90 11.87L156.90 11.87Q153.66 12.86 149.50 12.86L149.50 12.86L149.50 12.86Q142.78 12.86 138.94 10.75L138.94 10.75L138.94 10.75Q135.10 8.64 135.10 5.12L135.10 5.12L135.10 5.12Q135.10 2.50 137.09 0.99L137.09 0.99L137.09 0.99Q139.07-0.51 142.14-0.51L142.14-0.51L142.14-0.51Q144.83-0.51 146.88 0.64L146.88 0.64L146.88 0.64Q148.10 1.34 148.67 2.24L148.67 2.24L148.67 2.24Q147.20 3.52 147.20 5.63L147.20 5.63L147.20 5.63Q147.20 8.45 149.76 8.45L149.76 8.45L149.76 8.45Q153.98 8.45 156.42-1.28L156.42-1.28L156.42-1.28Q157.12-4.16 157.76-7.23Z" fill="#ffd5af"></path></g></g><style>text {
  font-size: 64px;
  font-family: Arial Black;
  dominant-baseline: central;
  text-anchor: middle;
}</style></svg>